<svg width="28" height="28" viewBox="0 0 28 28" fill="none" xmlns="http://www.w3.org/2000/svg">
<mask id="mask0_124_3555" style="mask-type:luminance" maskUnits="userSpaceOnUse" x="5" y="3" width="18" height="23">
<path d="M22.7656 3H5V25.1367H22.7656V3Z" fill="white"/>
</mask>
<g mask="url(#mask0_124_3555)">
<path d="M13.8828 3C13.2734 3 12.8398 3.42187 12.8398 4.03125V19.4648L12.957 22.957L13.6133 22.7227L9.41797 18.1172L6.74609 15.4922C6.57031 15.3047 6.28906 15.2109 6.00781 15.2109C5.42188 15.2109 5 15.6562 5 16.2305C5 16.5117 5.10547 16.7578 5.32813 16.9922L13.0976 24.7852C13.3203 25.0195 13.5898 25.1367 13.8828 25.1367C14.1758 25.1367 14.4453 25.0195 14.668 24.7852L22.4492 16.9922C22.6719 16.7578 22.7656 16.5117 22.7656 16.2305C22.7656 15.6562 22.3438 15.2109 21.7578 15.2109C21.4766 15.2109 21.207 15.3047 21.0195 15.4922L18.3477 18.1172L14.1406 22.7227L14.8086 22.957L14.9258 19.4648V4.03125C14.9258 3.42187 14.4922 3 13.8828 3Z" fill="#B6FDB0" fill-opacity="0.85"/>
</g>
</svg>
