<svg width="444" height="215" viewBox="0 0 444 215" fill="none" xmlns="http://www.w3.org/2000/svg">
<g clip-path="url(#clip0_356_4525)">
<path d="M286.51 143.6L305.01 154.42C305.312 154.597 305.562 154.849 305.736 155.153C305.91 155.457 306.001 155.8 306 156.15V177.85C306.001 178.2 305.91 178.544 305.736 178.847C305.562 179.151 305.312 179.404 305.01 179.58L286.51 190.41C286.204 190.589 285.855 190.684 285.5 190.684C285.145 190.684 284.796 190.589 284.49 190.41L265.99 179.58C265.688 179.404 265.438 179.151 265.264 178.847C265.09 178.544 264.999 178.2 265 177.85V156.15C264.999 155.8 265.09 155.457 265.264 155.153C265.438 154.849 265.688 154.597 265.99 154.42L284.49 143.59C284.796 143.411 285.145 143.316 285.5 143.316C285.855 143.316 286.204 143.411 286.51 143.59V143.6ZM424.51 88.6002L443.01 99.4202C443.312 99.5968 443.562 99.8495 443.736 100.153C443.91 100.457 444.001 100.8 444 101.15V122.85C444.001 123.2 443.91 123.544 443.736 123.847C443.562 124.151 443.312 124.404 443.01 124.58L424.51 135.41C424.204 135.589 423.855 135.684 423.5 135.684C423.145 135.684 422.796 135.589 422.49 135.41L403.99 124.58C403.688 124.404 403.438 124.151 403.264 123.847C403.09 123.544 402.999 123.2 403 122.85V101.15C402.999 100.8 403.09 100.457 403.264 100.153C403.438 99.8495 403.688 99.5968 403.99 99.4202L422.49 88.5902C422.796 88.4109 423.145 88.3164 423.5 88.3164C423.855 88.3164 424.204 88.4109 424.51 88.5902V88.6002ZM399.51 47.6002L418.01 58.4202C418.312 58.5968 418.562 58.8495 418.736 59.153C418.91 59.4566 419.001 59.8004 419 60.1502V81.8502C419.001 82.1999 418.91 82.5437 418.736 82.8473C418.562 83.1508 418.312 83.4035 418.01 83.5802L399.51 94.4102C399.204 94.5894 398.855 94.6839 398.5 94.6839C398.145 94.6839 397.796 94.5894 397.49 94.4102L378.99 83.5802C378.688 83.4035 378.438 83.1508 378.264 82.8473C378.09 82.5437 377.999 82.1999 378 81.8502V60.1502C377.999 59.8004 378.09 59.4566 378.264 59.153C378.438 58.8495 378.688 58.5968 378.99 58.4202L397.49 47.5902C397.796 47.4109 398.145 47.3164 398.5 47.3164C398.855 47.3164 399.204 47.4109 399.51 47.5902V47.6002ZM21.51 175.6L40.01 186.42C40.3119 186.597 40.5622 186.849 40.7359 187.153C40.9096 187.457 41.0007 187.8 41 188.15V209.85C41.0007 210.2 40.9096 210.544 40.7359 210.847C40.5622 211.151 40.3119 211.404 40.01 211.58L21.51 222.41C21.2036 222.589 20.855 222.684 20.5 222.684C20.145 222.684 19.7964 222.589 19.49 222.41L0.990004 211.58C0.688127 211.404 0.437845 211.151 0.264132 210.847C0.0904178 210.544 -0.000653865 210.2 3.53398e-06 209.85V188.15C-0.000653865 187.8 0.0904178 187.457 0.264132 187.153C0.437845 186.849 0.688127 186.597 0.990004 186.42L19.49 175.59C19.7964 175.411 20.145 175.316 20.5 175.316C20.855 175.316 21.2036 175.411 21.51 175.59V175.6Z" fill="#FFF7D8"/>
<path d="M141.07 198C137.63 197.78 134.319 197.51 131.119 197.21C130.854 197.185 130.59 197.266 130.385 197.436C130.179 197.606 130.05 197.85 130.024 198.115C129.999 198.38 130.08 198.645 130.25 198.85C130.42 199.055 130.664 199.185 130.929 199.21C134.159 199.51 137.479 199.77 140.929 200C141.195 200.019 141.456 199.931 141.657 199.757C141.858 199.582 141.981 199.335 141.999 199.07C142.018 198.805 141.931 198.543 141.756 198.343C141.582 198.142 141.335 198.019 141.07 198ZM119.239 195.85C115.954 195.399 112.68 194.872 109.419 194.27C109.169 194.242 108.916 194.309 108.713 194.459C108.51 194.609 108.371 194.83 108.324 195.078C108.277 195.326 108.326 195.583 108.46 195.797C108.595 196.01 108.805 196.165 109.049 196.23C112.343 196.84 115.651 197.373 118.969 197.83C119.226 197.855 119.483 197.779 119.685 197.618C119.887 197.458 120.02 197.225 120.055 196.97C120.09 196.714 120.024 196.455 119.872 196.246C119.72 196.037 119.494 195.895 119.239 195.85ZM97.7595 191.7C94.4595 190.84 91.2895 189.9 88.2395 188.87C88.1147 188.828 87.9829 188.811 87.8516 188.82C87.7202 188.829 87.592 188.864 87.474 188.922C87.3561 188.981 87.2508 189.062 87.1643 189.161C87.0777 189.26 87.0115 189.375 86.9695 189.5C86.9275 189.625 86.9104 189.757 86.9193 189.888C86.9283 190.019 86.963 190.148 87.0215 190.266C87.08 190.384 87.1611 190.489 87.2603 190.575C87.3595 190.662 87.4747 190.728 87.5995 190.77C90.6995 191.81 93.9195 192.77 97.2595 193.63C97.5072 193.674 97.7622 193.622 97.9738 193.486C98.1853 193.35 98.3378 193.14 98.4009 192.896C98.4639 192.653 98.4329 192.394 98.3141 192.173C98.1952 191.951 97.9972 191.782 97.7595 191.7ZM77.1895 184.48C74.1895 183.1 71.2695 181.56 68.4395 179.86C68.2138 179.742 67.9516 179.715 67.7065 179.784C67.4613 179.853 67.2517 180.013 67.1203 180.231C66.989 180.449 66.9457 180.709 66.9995 180.958C67.0532 181.207 67.1998 181.426 67.4095 181.57C70.3095 183.3 73.2895 184.87 76.3495 186.29C76.5861 186.381 76.8485 186.379 77.0835 186.284C77.3184 186.188 77.5085 186.008 77.6152 185.778C77.7219 185.548 77.7373 185.286 77.6583 185.045C77.5793 184.804 77.4117 184.602 77.1895 184.48ZM58.7495 173.03C56.2074 170.94 53.8087 168.682 51.5695 166.27C51.3891 166.075 51.1388 165.96 50.8734 165.95C50.608 165.939 50.3494 166.035 50.1545 166.215C49.9596 166.395 49.8443 166.646 49.8339 166.911C49.8236 167.177 49.9191 167.435 50.0995 167.63C52.3995 170.11 54.8695 172.43 57.4795 174.58C57.5813 174.664 57.6985 174.726 57.8244 174.764C57.9504 174.802 58.0826 174.815 58.2135 174.802C58.3444 174.789 58.4715 174.751 58.5875 174.688C58.7035 174.626 58.8061 174.542 58.8895 174.44C58.9729 174.338 59.0354 174.221 59.0735 174.095C59.1116 173.969 59.1245 173.837 59.1115 173.706C59.0985 173.575 59.0599 173.448 58.9977 173.332C58.9356 173.216 58.8513 173.114 58.7495 173.03ZM44.2495 156.94C42.4358 154.19 40.7991 151.328 39.3495 148.37C39.2911 148.252 39.2099 148.146 39.1107 148.06C39.0115 147.973 38.8961 147.906 38.7712 147.864C38.6463 147.822 38.5143 147.805 38.3828 147.813C38.2512 147.822 38.1227 147.857 38.0045 147.915C37.8863 147.974 37.7808 148.055 37.694 148.154C37.6071 148.253 37.5407 148.369 37.4984 148.493C37.4562 148.618 37.439 148.75 37.4477 148.882C37.4565 149.013 37.4911 149.142 37.5495 149.26C39.0381 152.291 40.7182 155.223 42.5795 158.04C42.6507 158.152 42.7434 158.249 42.8523 158.325C42.9613 158.401 43.0842 158.454 43.214 158.482C43.3437 158.51 43.4777 158.511 43.6082 158.487C43.7386 158.462 43.8629 158.412 43.9737 158.339C44.0845 158.266 44.1797 158.172 44.2537 158.062C44.3277 157.951 44.3791 157.828 44.4047 157.697C44.4304 157.567 44.4299 157.433 44.4032 157.303C44.3766 157.173 44.3243 157.05 44.2495 156.94ZM34.8495 137.37C33.8107 134.238 32.923 131.058 32.1895 127.84C32.1244 127.589 31.964 127.372 31.7422 127.237C31.5204 127.102 31.2547 127.058 31.0013 127.115C30.7478 127.172 30.5266 127.326 30.3844 127.543C30.2422 127.761 30.1903 128.025 30.2395 128.28C30.9862 131.565 31.8906 134.812 32.9495 138.01C33.0344 138.262 33.2158 138.47 33.454 138.588C33.6922 138.706 33.9675 138.725 34.2195 138.64C34.4715 138.555 34.6794 138.374 34.7975 138.136C34.9157 137.897 34.9344 137.622 34.8495 137.37ZM30.5295 116.25C30.5895 112.83 30.7695 109.53 31.0695 106.34C31.0862 106.081 31.0013 105.825 30.8328 105.627C30.6642 105.429 30.4253 105.305 30.1666 105.28C29.9079 105.256 29.6498 105.333 29.4468 105.495C29.2439 105.657 29.1122 105.892 29.0795 106.15C28.7795 109.39 28.5895 112.75 28.5295 116.21C28.5242 116.475 28.6245 116.732 28.8082 116.923C28.992 117.114 29.2443 117.225 29.5095 117.23C29.7747 117.235 30.0312 117.135 30.2225 116.951C30.4137 116.768 30.5242 116.515 30.5295 116.25ZM32.7995 94.5701C33.4593 91.3373 34.2939 88.1426 35.2995 85.0001C35.3525 84.8721 35.3784 84.7344 35.3753 84.5958C35.3723 84.4572 35.3405 84.3207 35.282 84.1951C35.2234 84.0695 35.1393 83.9574 35.0352 83.8659C34.931 83.7745 34.8089 83.7057 34.6767 83.664C34.5445 83.6222 34.4051 83.6084 34.2673 83.6234C34.1295 83.6385 33.9963 83.6819 33.8762 83.7512C33.7561 83.8204 33.6517 83.9138 33.5696 84.0256C33.4876 84.1373 33.4296 84.2648 33.3995 84.4001C32.3704 87.6082 31.5158 90.8696 30.8395 94.1701C30.7865 94.4301 30.8388 94.7004 30.9851 94.9217C31.1314 95.143 31.3596 95.2971 31.6195 95.3501C31.8794 95.4032 32.1497 95.3508 32.371 95.2045C32.5923 95.0583 32.7465 94.8301 32.7995 94.5701ZM39.7395 74.0201C41.2395 71.0201 42.9095 68.1901 44.7395 65.5201C44.8855 65.3013 44.9393 65.0337 44.8894 64.7754C44.8394 64.5171 44.6897 64.2888 44.4726 64.1402C44.2555 63.9915 43.9886 63.9344 43.7297 63.9812C43.4708 64.028 43.2408 64.1749 43.0895 64.3901C41.1733 67.1793 39.4557 70.0999 37.9495 73.1301C37.8911 73.2483 37.8565 73.3769 37.8477 73.5084C37.8389 73.64 37.8562 73.772 37.8984 73.8969C37.9407 74.0218 38.0071 74.1371 38.094 74.2363C38.1808 74.3356 38.2863 74.4167 38.4045 74.4751C38.5227 74.5336 38.6512 74.5682 38.7828 74.5769C38.9143 74.5857 39.0463 74.5685 39.1712 74.5262C39.2961 74.484 39.4115 74.4175 39.5107 74.3307C39.6099 74.2439 39.6911 74.1383 39.7495 74.0201H39.7395ZM52.2795 56.3801C54.5795 54.0501 57.0495 51.8801 59.6795 49.8501C59.889 49.687 60.0252 49.4474 60.058 49.1839C60.0908 48.9204 60.0176 48.6547 59.8545 48.4451C59.6914 48.2356 59.4517 48.0995 59.1882 48.0667C58.9248 48.0338 58.659 48.107 58.4495 48.2701C55.7648 50.3293 53.2255 52.5713 50.8495 54.9801C50.6638 55.1698 50.5611 55.4254 50.5639 55.6907C50.5668 55.9561 50.6749 56.2095 50.8645 56.3951C51.0541 56.5808 51.3097 56.6835 51.5751 56.6807C51.8405 56.6779 52.0938 56.5698 52.2795 56.3801ZM69.5695 43.3501C72.4525 41.7395 75.4127 40.2711 78.4395 38.9501C78.5666 38.9024 78.6826 38.8293 78.7805 38.7352C78.8784 38.6412 78.9562 38.5282 79.009 38.4031C79.0618 38.2781 79.0886 38.1436 79.0877 38.0078C79.0869 37.872 79.0584 37.7379 79.004 37.6135C78.9497 37.4891 78.8705 37.3771 78.7714 37.2843C78.6724 37.1914 78.5554 37.1198 78.4278 37.0736C78.3001 37.0275 78.1644 37.0078 78.0288 37.0158C77.8933 37.0238 77.7608 37.0593 77.6395 37.1201C74.5513 38.468 71.531 39.9665 68.5895 41.6101C68.3739 41.7477 68.2191 41.9626 68.1571 42.2106C68.0951 42.4587 68.1304 42.7212 68.2559 42.944C68.3814 43.1668 68.5875 43.3331 68.8318 43.4086C69.0762 43.4842 69.3401 43.4632 69.5695 43.3501ZM89.5695 34.6701C92.5295 33.6701 95.5695 32.7301 99.0695 31.7101C99.3116 31.6267 99.5126 31.4536 99.6308 31.2265C99.7491 30.9993 99.7757 30.7355 99.7052 30.4893C99.6347 30.2431 99.4724 30.0333 99.2518 29.9032C99.0312 29.7732 98.7691 29.7327 98.5195 29.7901C94.9795 30.8101 91.9195 31.7601 88.9295 32.7701C88.8047 32.8122 88.6895 32.8783 88.5903 32.9649C88.4911 33.0515 88.41 33.1567 88.3515 33.2747C88.293 33.3926 88.2583 33.5209 88.2494 33.6522C88.2404 33.7836 88.2575 33.9154 88.2995 34.0401C88.3415 34.1649 88.4077 34.2802 88.4943 34.3793C88.5808 34.4785 88.6861 34.5597 88.804 34.6182C88.9219 34.6767 89.0502 34.7114 89.1816 34.7203C89.3129 34.7292 89.4447 34.7122 89.5695 34.6701Z" fill="#E7E7E7"/>
<path d="M259.65 148.89C259.653 150.742 259.252 152.573 258.472 154.254C257.693 155.935 256.556 157.425 255.14 158.62H264.91C271.94 158.62 277.65 164.32 277.65 171.36V171.51C277.65 176.21 275.06 180.52 270.93 182.74L270.91 182.75H271.26C278.3 182.75 284 188.45 284 195.49V195.64C284 202.4 278.72 207.99 271.97 208.37C273.392 209.565 274.535 211.057 275.318 212.742C276.1 214.426 276.504 216.262 276.5 218.12V218.27C276.5 225.3 270.8 231.01 263.76 231.01H181.24C174.21 231.01 168.5 225.31 168.5 218.27V218.12C168.498 216.264 168.902 214.43 169.685 212.747C170.467 211.065 171.609 209.574 173.03 208.38V208.37C169.779 208.188 166.721 206.769 164.484 204.404C162.247 202.038 161 198.906 161 195.65V195.5C161 188.6 166.48 182.95 173.38 182.75C171.345 181.662 169.644 180.042 168.458 178.062C167.273 176.082 166.648 173.817 166.65 171.51V171.36C166.65 164.33 172.35 158.63 179.38 158.62H189.15C187.737 157.423 186.602 155.933 185.825 154.252C185.048 152.571 184.647 150.741 184.65 148.89V148.74C184.65 141.7 190.35 136 197.39 136H246.91C253.94 136 259.65 141.7 259.65 148.74V148.89ZM137.81 19.9298C139.16 26.1698 134.65 32.6498 128.12 34.4998C120.63 36.6098 114.01 36.3498 108.3 34.3198C106.346 33.6347 104.482 32.7146 102.75 31.5798C101.65 30.8498 100.81 30.1798 100.22 29.5998L99.75 29.1598L99.97 28.5498C100.24 27.7798 100.69 26.7698 101.35 25.6198C102.393 23.81 103.648 22.1314 105.09 20.6198C109.29 16.1898 115.07 12.8998 122.69 11.3398C129.34 9.96982 136.24 13.6798 137.81 19.9298Z" fill="#282828"/>
<path d="M264.91 160.62C270.84 160.62 275.65 165.43 275.65 171.36V171.51C275.65 175.47 273.47 179.11 269.98 180.98L266.48 182.87L262.99 184.75H271.26C277.19 184.75 282 189.55 282 195.49V195.64C282 201.34 277.55 206.06 271.85 206.37L269.35 206.51L266.85 206.65L270.67 209.9C271.871 210.906 272.837 212.164 273.499 213.584C274.161 215.004 274.502 216.553 274.5 218.12V218.27C274.5 224.2 269.69 229.01 263.76 229.01H181.24C178.391 229.01 175.66 227.878 173.646 225.864C171.631 223.85 170.5 221.118 170.5 218.27V218.12C170.5 214.95 171.9 211.94 174.32 209.91L176.25 208.27L178.15 206.65L173.15 206.37C170.408 206.219 167.829 205.024 165.941 203.03C164.053 201.037 163.001 198.396 163 195.65V195.5C163 189.68 167.62 184.91 173.44 184.75L177.2 184.65L180.96 184.55L174.32 180.99C172.604 180.072 171.17 178.705 170.171 177.036C169.172 175.366 168.647 173.456 168.65 171.51V171.36C168.65 165.43 173.45 160.63 179.38 160.62H194.61L190.45 157.1C189.256 156.091 188.298 154.834 187.641 153.415C186.985 151.997 186.647 150.453 186.65 148.89V148.74C186.65 142.81 191.45 138 197.39 138H246.91C252.84 138 257.65 142.81 257.65 148.74V148.89C257.65 152.05 256.26 155.06 253.85 157.09L251.76 158.86L249.68 160.62H264.91ZM108.97 32.4399C107.167 31.8073 105.448 30.9577 103.85 29.9099C103.15 29.4399 102.55 28.9899 102.09 28.5999C103.199 26.1694 104.703 23.9393 106.54 21.9999C110.46 17.8599 115.88 14.7799 123.09 13.2999C128.74 12.1399 134.58 15.2699 135.86 20.3799C136.97 25.4999 133.14 30.9999 127.58 32.5799C120.49 34.5799 114.29 34.3199 108.98 32.4399H108.97Z" fill="#FFC629"/>
<path d="M222.501 206C235.331 206 239.361 214.43 234.451 229.95L234.121 231H210.881L210.551 229.95C205.651 214.43 209.671 206 222.501 206ZM130.501 45.4002C129.031 49.9202 124.401 52.9202 120.021 51.7902C115.701 50.5202 113.301 45.5702 114.421 40.9402C115.701 35.7602 118.091 31.8602 121.221 29.0902C122.833 27.612 124.732 26.4818 126.801 25.7702L127.421 25.5702L127.851 26.0502C129.248 27.7252 130.28 29.6735 130.881 31.7702C132.111 35.7502 132.121 40.3102 130.491 45.4002H130.501ZM107.161 15.5702C103.461 12.6202 102.351 7.23023 104.981 3.53023C107.711 -0.0697737 113.201 -0.619774 117.101 2.04023C121.471 5.03023 124.241 8.63023 125.681 12.5402C126.211 13.9702 126.541 15.3602 126.691 16.6902C126.791 17.5902 126.811 18.3202 126.781 18.9202L126.741 19.5702L126.141 19.8002C125.591 20.0102 124.871 20.2202 123.981 20.4002C122.671 20.6402 121.241 20.7502 119.711 20.6602C115.561 20.4402 111.311 18.8602 107.161 15.5702Z" fill="#282828"/>
<path d="M128.971 32.3598C130.081 35.9598 130.091 40.0998 128.591 44.7798C127.431 48.3498 123.811 50.6998 120.551 49.8598C117.351 48.9198 115.481 45.0598 116.371 41.4198C117.541 36.6398 119.721 33.0998 122.551 30.5898C123.807 29.4767 125.231 28.5688 126.771 27.8998C127.736 29.26 128.479 30.7656 128.971 32.3598ZM119.821 18.6598C116.071 18.4598 112.221 17.0398 108.401 14.0098C105.501 11.6898 104.631 7.47981 106.601 4.70981C108.631 2.02981 112.901 1.60981 115.981 3.69981C120.001 6.43981 122.501 9.69981 123.811 13.2298C124.395 14.8076 124.726 16.4683 124.791 18.1498C123.172 18.586 121.494 18.7616 119.821 18.6698V18.6598Z" fill="white"/>
</g>
<defs>
<clipPath id="clip0_356_4525">
<rect width="444" height="232" fill="white"/>
</clipPath>
</defs>
</svg>
