<svg width="28" height="28" viewBox="0 0 28 28" fill="none" xmlns="http://www.w3.org/2000/svg">
<mask id="mask0_124_2904" style="mask-type:luminance" maskUnits="userSpaceOnUse" x="3" y="2" width="23" height="25">
<path d="M25.1133 2H3V26.2227H25.1133V2Z" fill="white"/>
</mask>
<g mask="url(#mask0_124_2904)">
<path d="M3 20.5508C3 21.4062 3.65625 21.9688 4.76953 21.9688H9.71484C9.80859 24.2305 11.5781 26.2109 14.0507 26.2109C16.5351 26.2109 18.3046 24.2422 18.3983 21.9688H23.3438C24.4452 21.9688 25.1132 21.4062 25.1132 20.5508C25.1132 19.3789 23.9179 18.3242 22.9102 17.2812C22.1367 16.4727 21.9257 14.8086 21.8319 13.4609C21.7499 8.84375 20.5546 5.86719 17.4375 4.74219C17.0391 3.20703 15.7851 2 14.0507 2C12.3281 2 11.0624 3.20703 10.6757 4.74219C7.55859 5.86719 6.36328 8.84375 6.28125 13.4609C6.1875 14.8086 5.97656 16.4727 5.20312 17.2812C4.18359 18.3242 3 19.3789 3 20.5508ZM5.27344 20.1992V20.0586C5.48438 19.7188 6.1875 19.0273 6.79688 18.3477C7.64062 17.4102 8.03906 15.8984 8.14453 13.6133C8.23828 8.49219 9.76172 6.86328 11.7656 6.3125C12.0585 6.24219 12.2226 6.10156 12.2343 5.79688C12.2695 4.57812 12.9726 3.72266 14.0507 3.72266C15.1405 3.72266 15.832 4.57812 15.8788 5.79688C15.8905 6.10156 16.0429 6.24219 16.3358 6.3125C18.3516 6.86328 19.875 8.49219 19.9688 13.6133C20.0742 15.8984 20.4726 17.4102 21.3046 18.3477C21.9257 19.0273 22.6171 19.7188 22.828 20.0586V20.1992H5.27344ZM11.5429 21.9688H16.5702C16.4765 23.5625 15.4688 24.5586 14.0507 24.5586C12.6445 24.5586 11.6249 23.5625 11.5429 21.9688Z" fill="#B6FDB0" fill-opacity="0.85"/>
</g>
</svg>
