<svg width="32" height="32" viewBox="0 0 32 32" fill="none" xmlns="http://www.w3.org/2000/svg">
<mask id="mask0_124_3027" style="mask-type:luminance" maskUnits="userSpaceOnUse" x="1" y="3" width="30" height="27">
<path d="M30.2213 3H1V29.4727H30.2213V3Z" fill="white"/>
</mask>
<g mask="url(#mask0_124_3027)">
<path d="M8.87545 8.05078C10.2817 8.05078 11.4067 6.9375 11.4067 5.53125C11.4067 4.125 10.2817 3 8.87545 3C7.4692 3 6.3442 4.125 6.3442 5.53125C6.3442 6.9375 7.4692 8.05078 8.87545 8.05078ZM8.87545 19.3945C9.35592 19.3945 9.54342 19.7227 9.81295 20.5664C10.2114 21.75 11.395 26.6602 11.7934 28.1016C11.9926 28.8281 12.3676 29.1328 12.9184 29.1328C13.6684 29.1328 14.1254 28.4531 13.9145 27.7148C13.8325 27.3984 12.1333 20.2969 11.8872 18.832C11.6879 17.543 11.6411 14.9414 11.6411 13.7109C11.6411 13.5234 11.852 13.4531 11.9692 13.6172C12.8481 14.8477 14.4536 17.1445 14.77 17.5195C15.1215 17.918 15.684 17.9883 16.1411 17.7305C16.7387 17.4141 16.8794 16.7695 16.6333 16.3242C16.5395 16.1484 16.4106 15.9727 16.2934 15.7969L13.2583 11.332C12.2973 9.91406 11.102 9.28125 8.87545 9.28125C6.64888 9.28125 5.45358 9.91406 4.49264 11.332L1.45748 15.7969C1.34029 15.9727 1.21138 16.1484 1.11763 16.3242C0.871541 16.7695 1.00045 17.4141 1.60982 17.7305C2.06685 17.9883 2.62935 17.918 2.9692 17.5195C3.2856 17.1445 4.90279 14.8594 5.7817 13.6172C5.88718 13.4648 6.10982 13.5234 6.10982 13.7227C6.10982 14.9531 6.05123 17.543 5.85201 18.832C5.61763 20.2969 3.91843 27.3984 3.83639 27.7148C3.62544 28.4531 4.08248 29.1328 4.83248 29.1328C5.38327 29.1328 5.75826 28.8281 5.95748 28.1016C6.35592 26.6602 7.53952 21.75 7.93795 20.5664C8.20748 19.7227 8.39498 19.3945 8.87545 19.3945ZM22.352 8.05078C23.7583 8.05078 24.8833 6.9375 24.8833 5.53125C24.8833 4.125 23.7583 3 22.352 3C20.9458 3 19.8208 4.125 19.8208 5.53125C19.8208 6.9375 20.9458 8.05078 22.352 8.05078ZM22.352 19.3945C22.8208 19.3945 23.02 19.7227 23.2895 20.5664C23.6762 21.75 24.8715 26.6602 25.27 28.1016C25.4692 28.8281 25.8442 29.1328 26.395 29.1328C27.145 29.1328 27.602 28.4531 27.3911 27.7148C27.2973 27.3984 25.5981 20.2969 25.3637 18.832C25.1645 17.543 25.1059 14.9414 25.1059 13.7109C25.1059 13.5234 25.3286 13.4531 25.434 13.6172C26.3247 14.8477 27.9301 17.1445 28.2465 17.5195C28.5981 17.918 29.1489 17.9883 29.6176 17.7305C30.2153 17.4141 30.3559 16.7695 30.0981 16.3242C30.0044 16.1484 29.8872 15.9727 29.7583 15.7969L26.7348 11.332C25.7622 9.91406 24.5786 9.28125 22.352 9.28125C20.1254 9.28125 18.9301 9.91406 17.9692 11.332L14.934 15.7969C14.8051 15.9727 14.6879 16.1484 14.5942 16.3242C14.3481 16.7695 14.477 17.4141 15.0747 17.7305C15.5434 17.9883 16.0942 17.918 16.4458 17.5195C16.7622 17.1445 18.3676 14.8594 19.2583 13.6172C19.3637 13.4648 19.5864 13.5234 19.5864 13.7227C19.5864 14.9531 19.5278 17.543 19.3286 18.832C19.0942 20.2969 17.395 27.3984 17.3129 27.7148C17.0903 28.4531 17.559 29.1328 18.309 29.1328C18.8598 29.1328 19.2231 28.8281 19.4223 28.1016C19.8208 26.6602 21.0161 21.75 21.4028 20.5664C21.6723 19.7227 21.8715 19.3945 22.352 19.3945Z" fill="#B6FDB0" fill-opacity="0.85"/>
</g>
</svg>
