<svg width="32" height="32" viewBox="0 0 32 32" fill="none" xmlns="http://www.w3.org/2000/svg">
<mask id="mask0_124_2905" style="mask-type:luminance" maskUnits="userSpaceOnUse" x="6" y="3" width="21" height="26">
<path d="M26.3555 3H6V28.8867H26.3555V3Z" fill="white"/>
</mask>
<g mask="url(#mask0_124_2905)">
<path d="M16.1719 8.09766C17.5898 8.09766 18.7266 6.96094 18.7266 5.55469C18.7266 4.13672 17.5898 3 16.1719 3C14.754 3 13.6171 4.13672 13.6171 5.55469C13.6171 6.96094 14.754 8.09766 16.1719 8.09766ZM16.1719 19.1016C16.6641 19.1016 16.8749 19.4062 17.1327 20.2734C17.5077 21.4336 18.75 26.3555 19.1016 27.8086C19.2656 28.5352 19.6641 28.8398 20.2148 28.8398C20.9648 28.8398 21.4101 28.1602 21.2108 27.4219C21.1288 27.1055 19.4179 20.0039 19.1952 18.5391C18.9726 17.0391 18.9608 13.7695 18.9608 12.7617C18.9608 12.0586 19.2891 11.6133 19.8633 11.4844C20.4141 11.3555 24.8906 10.875 25.5 10.6758C26.0039 10.5234 26.3554 10.1133 26.3554 9.57422C26.3554 8.89453 25.8398 8.48438 25.3594 8.48438C25.1602 8.48438 24.9727 8.53125 24.7617 8.57812C22.9335 8.90625 18.9844 9.32812 16.1719 9.32812C13.3829 9.32812 9.41016 8.92969 7.58203 8.57812C7.38281 8.53125 7.18359 8.48438 6.99609 8.48438C6.49219 8.48438 6 8.89453 6 9.57422C6 10.1133 6.32812 10.5703 6.84375 10.6758C7.48828 10.8164 11.9297 11.3789 12.4805 11.4844C13.0547 11.5898 13.3945 12.0586 13.4062 12.7617C13.4179 13.7695 13.3829 17.0391 13.1485 18.5391C12.9141 20.0039 11.2148 27.1055 11.1328 27.4219C10.9219 28.1602 11.3789 28.8398 12.1289 28.8398C12.6796 28.8398 13.0546 28.5352 13.2539 27.8086C13.6523 26.3672 14.8359 21.457 15.2344 20.2734C15.504 19.4297 15.6915 19.1016 16.1719 19.1016Z" fill="#B6FDB0" fill-opacity="0.85"/>
</g>
</svg>
