<svg width="28" height="28" viewBox="0 0 28 28" fill="none" xmlns="http://www.w3.org/2000/svg">
<mask id="mask0_192_4185" style="mask-type:luminance" maskUnits="userSpaceOnUse" x="0" y="1" width="28" height="27">
<path d="M27.9727 1H0V27.5957H27.9727V1Z" fill="white"/>
</mask>
<g mask="url(#mask0_192_4185)">
<path d="M10.6055 24.4053H17.3672V15.874C17.3672 15.335 17.0156 14.9834 16.4766 14.9834H11.5078C10.957 14.9834 10.6055 15.335 10.6055 15.874V24.4053ZM6.02344 25.6123H21.8789C23.543 25.6123 24.5156 24.6631 24.5156 23.0225V10.0732L22.6289 8.78418V22.542C22.6289 23.3037 22.2188 23.7256 21.4805 23.7256H6.42188C5.67188 23.7256 5.26172 23.3037 5.26172 22.542V8.7959L3.375 10.0732V23.0225C3.375 24.6631 4.34766 25.6123 6.02344 25.6123ZM0 12.5693C0 13.0498 0.375 13.5068 1.00781 13.5068C1.33594 13.5068 1.60547 13.3311 1.85156 13.1318L13.582 3.28809C13.8398 3.05371 14.1562 3.05371 14.4141 3.28809L26.1445 13.1318C26.3789 13.3311 26.6484 13.5068 26.9766 13.5068C27.5273 13.5068 27.9727 13.167 27.9727 12.6045C27.9727 12.2529 27.8555 12.0186 27.6094 11.8076L15.4102 1.55371C14.543 0.815428 13.4648 0.815428 12.5859 1.55371L0.375 11.8076C0.117188 12.0186 0 12.2998 0 12.5693ZM21.5742 7.28418L24.5156 9.76855V4.35449C24.5156 3.83887 24.1875 3.51074 23.6719 3.51074H22.418C21.9141 3.51074 21.5742 3.83887 21.5742 4.35449V7.28418Z" fill="#B6FDB0" fill-opacity="0.85"/>
</g>
</svg>
