<svg width="28" height="28" viewBox="0 0 28 28" fill="none" xmlns="http://www.w3.org/2000/svg">
<mask id="mask0_119_2283" style="mask-type:luminance" maskUnits="userSpaceOnUse" x="2" y="3" width="24" height="23">
<path d="M25.2734 3H2V25.2305H25.2734V3Z" fill="white"/>
</mask>
<g mask="url(#mask0_119_2283)">
<path d="M13.6367 25.2305C13.8828 25.2305 14.2344 25.0664 14.4922 24.9141C21.0898 20.6953 25.2734 15.7852 25.2734 10.793C25.2734 6.64452 22.4258 3.71484 18.7461 3.71484C16.4609 3.71484 14.7031 4.98046 13.6367 6.91405C12.5938 4.99218 10.8125 3.71484 8.52734 3.71484C4.84766 3.71484 2 6.64452 2 10.793C2 15.7852 6.18359 20.6953 12.793 24.9141C13.0391 25.0664 13.3906 25.2305 13.6367 25.2305Z" fill="#B6FDB0" fill-opacity="0.85"/>
</g>
</svg>
