<svg width="18" height="25" viewBox="0 0 18 25" fill="none" xmlns="http://www.w3.org/2000/svg">
<mask id="mask0_531_7885" style="mask-type:luminance" maskUnits="userSpaceOnUse" x="0" y="0" width="18" height="25">
<path d="M17.8594 0H0V24.8789H17.8594V0Z" fill="white"/>
</mask>
<g mask="url(#mask0_531_7885)">
<path d="M0 23.9297C0 24.4453 0.42188 24.8672 0.9375 24.8672C1.46484 24.8672 1.88672 24.4453 1.88672 23.9297V2.50781C1.88672 2.13281 2.13281 1.88672 2.48438 1.88672H15.375C15.7266 1.88672 15.9727 2.13281 15.9727 2.50781V23.9297C15.9727 24.4453 16.3945 24.8672 16.9219 24.8672C17.4375 24.8672 17.8594 24.4453 17.8594 23.9297V2.39062C17.8594 0.96094 16.8867 0 15.4102 0H2.44922C0.98438 0 0 0.96094 0 2.39062V23.9297Z" fill="#7CF7FF" fill-opacity="0.85"/>
<path d="M3.25781 24.1992C3.25781 24.4219 3.44531 24.5391 3.66797 24.4453L7.34766 22.8164C7.64066 22.6875 7.75786 22.5938 7.75786 22.2891V5.40236C7.75786 5.1094 7.64066 5.00393 7.35936 4.88674L3.66797 3.24611C3.44531 3.15236 3.25781 3.26955 3.25781 3.50393V24.1992Z" fill="#7CF7FF" fill-opacity="0.85"/>
</g>
</svg>
