<svg width="64" height="64" viewBox="0 0 64 64" fill="none" xmlns="http://www.w3.org/2000/svg">
<path d="M12.1218 53.2042C13.0593 54.115 14.6129 54.115 15.5236 53.2042L32.6664 36.0613L49.8092 53.2042C50.7201 54.115 52.3004 54.1418 53.2111 53.2042C54.1217 52.2668 54.1217 50.7399 53.2111 49.8293L36.0682 32.6597L53.2111 15.5168C54.1217 14.6061 54.1487 13.0525 53.2111 12.1418C52.2735 11.2043 50.7201 11.2043 49.8092 12.1418L32.6664 29.2846L15.5236 12.1418C14.6129 11.2043 13.0325 11.1775 12.1218 12.1418C11.2111 13.0793 11.2111 14.6061 12.1218 15.5168L29.2648 32.6597L12.1218 49.8293C11.2111 50.7399 11.1843 52.2935 12.1218 53.2042Z" fill="#767676"/>
</svg>
