<svg width="36" height="36" viewBox="0 0 36 36" fill="none" xmlns="http://www.w3.org/2000/svg">
<mask id="mask0_400_4788" style="mask-type:luminance" maskUnits="userSpaceOnUse" x="5" y="2" width="27" height="33">
<path d="M31.3203 2H5V34.7305H31.3203V2Z" fill="white"/>
</mask>
<g mask="url(#mask0_400_4788)">
<path d="M15.2422 30.9218H27.6875C30.1133 30.9218 31.3203 29.6913 31.3203 27.2538V16.6132C31.3203 15.1015 31.1445 14.4452 30.207 13.4843L23.75 6.91016C22.8594 5.99609 22.1211 5.79688 20.8086 5.79688H15.2422C12.8281 5.79688 11.6094 7.03906 11.6094 9.47656V27.2538C11.6094 29.703 12.8164 30.9218 15.2422 30.9218ZM15.3242 29.0351C14.1172 29.0351 13.4961 28.3905 13.4961 27.2187V9.51172C13.4961 8.35156 14.1172 7.68358 15.3359 7.68358H20.5508V14.4921C20.5508 15.9687 21.2891 16.6952 22.7539 16.6952H29.4336V27.2187C29.4336 28.3905 28.8125 29.0351 27.5938 29.0351H15.3242ZM22.9648 14.9257C22.4961 14.9257 22.3203 14.7382 22.3203 14.2694V8.04688L29.0703 14.9257H22.9648Z" fill="#B6FDB0" fill-opacity="0.85"/>
<path d="M12.5586 34.7306C16.6719 34.7306 20.1055 31.3087 20.1055 27.1837C20.1055 23.0353 16.707 19.6251 12.5586 19.6251C8.41016 19.6251 5 23.0353 5 27.1837C5 31.3439 8.39844 34.7306 12.5586 34.7306Z" fill="white"/>
<path d="M12.5586 33.1367C15.7812 33.1367 18.5117 30.4297 18.5117 27.1836C18.5117 23.9141 15.8281 21.2305 12.5586 21.2305C9.28906 21.2305 6.60547 23.9141 6.60547 27.1836C6.60547 30.4531 9.28906 33.1367 12.5586 33.1367Z" fill="#B6FDB0" fill-opacity="0.85"/>
<path d="M12.5705 23.3984C12.7697 23.3984 12.9221 23.4922 13.1213 23.668L16.1564 26.4922C16.344 26.6445 16.4143 26.8203 16.4143 27.043C16.4143 27.4414 16.1096 27.7578 15.6994 27.7344C15.5002 27.7227 15.3127 27.6406 15.1721 27.5L14.0471 26.375L13.2853 25.5781L13.3439 27.0781V30.1836C13.3439 30.5938 12.9924 30.9336 12.5705 30.9336C12.1486 30.9336 11.7971 30.5938 11.7971 30.1836V27.0781L11.8556 25.5781L11.0822 26.375L9.98064 27.5C9.82829 27.6406 9.62908 27.7461 9.42986 27.7344C9.03142 27.7344 8.69158 27.4414 8.71501 27.043C8.72673 26.8203 8.80876 26.6445 8.98455 26.4922L12.008 23.668C12.2189 23.4805 12.383 23.3984 12.5705 23.3984Z" fill="white"/>
</g>
</svg>
