<svg width="64" height="64" viewBox="0 0 64 64" fill="none" xmlns="http://www.w3.org/2000/svg">
<path d="M4.47191 31.9765C3.55785 33.2655 3.97972 34.4139 5.66722 34.4139H8.9016C10.1672 46.3437 20.4563 55.8123 32.6671 55.8123C39.8155 55.8123 46.2843 52.5545 50.6905 47.4921C51.5577 46.4843 51.4405 45.2187 50.5265 44.5623C49.6125 43.9061 48.4875 44.1405 47.7375 45.0077C44.1047 49.2031 38.7139 51.8281 32.6671 51.8281C22.4485 51.8281 14.1282 44.2577 12.9328 34.4139H16.425C18.0891 34.4139 18.511 33.2655 17.6203 31.9999L12.3703 24.5235C11.6203 23.4453 10.4953 23.4219 9.72192 24.5235L4.47191 31.9765ZM14.6672 16.3203C13.7766 17.3281 13.8938 18.5703 14.8313 19.2266C15.7453 19.8828 16.8469 19.6719 17.6203 18.8047C21.2766 14.6328 26.6671 11.9844 32.6671 11.9844C42.8625 11.9844 51.1827 19.5547 52.4015 29.4217H48.9093C47.2453 29.4217 46.8233 30.5467 47.7139 31.8359L52.9639 39.3123C53.7139 40.3905 54.8389 40.4139 55.6125 39.3123L60.8389 31.8593C61.7765 30.5467 61.3311 29.4217 59.6437 29.4217H56.4327C55.1437 17.4922 44.8781 8 32.6671 8C25.5187 8 19.0735 11.2344 14.6672 16.3203Z" fill="#B6FDB0"/>
</svg>
