<svg width="64" height="64" viewBox="0 0 64 64" fill="none" xmlns="http://www.w3.org/2000/svg">
<mask id="mask0_186_4397" style="mask-type:luminance" maskUnits="userSpaceOnUse" x="2" y="2" width="60" height="61">
<path d="M61.7721 2.28571H2.28613V62.9554H61.7721V2.28571Z" fill="white"/>
</mask>
<g mask="url(#mask0_186_4397)">
<path d="M13.6994 58.6426C14.7976 59.4998 16.1905 59.2052 17.8512 57.9999L32.0206 47.5802L46.2172 57.9999C47.8778 59.2052 49.244 59.4998 50.369 58.6426C51.4673 57.8125 51.7082 56.4463 51.0387 54.4909L45.4403 37.8303L59.7439 27.5446C61.4047 26.3661 62.0744 25.1338 61.6458 23.7946C61.2172 22.5089 59.9583 21.8661 57.8959 21.8928L40.3512 22L35.0206 5.25892C34.3779 3.27679 33.4136 2.28571 32.0206 2.28571C30.6547 2.28571 29.6904 3.27679 29.0476 5.25892L23.7173 22L6.17265 21.8928C4.11014 21.8661 2.85121 22.5089 2.42264 23.7946C1.96728 25.1338 2.66371 26.3661 4.32442 27.5446L18.628 37.8303L13.0298 54.4909C12.3601 56.4463 12.6012 57.8125 13.6994 58.6426Z" fill="#75CDFF"/>
</g>
</svg>
