<svg width="23" height="26" viewBox="0 0 23 26" fill="none" xmlns="http://www.w3.org/2000/svg">
<path d="M7.87498 22.1787C8.32028 22.1787 8.61328 21.8994 8.60158 21.4918L8.23828 9.03451C8.22658 8.62702 7.93358 8.35925 7.51168 8.35925C7.06638 8.35925 6.77344 8.63866 6.78516 9.04615L7.13668 21.4918C7.14848 21.911 7.44138 22.1787 7.87498 22.1787ZM11.3438 22.1787C11.7891 22.1787 12.1055 21.8994 12.1055 21.4918V9.04615C12.1055 8.63866 11.7891 8.35925 11.3438 8.35925C10.8984 8.35925 10.5938 8.63866 10.5938 9.04615V21.4918C10.5938 21.8994 10.8984 22.1787 11.3438 22.1787ZM14.8242 22.1787C15.2461 22.1787 15.5391 21.911 15.5508 21.4918L15.9023 9.04615C15.9141 8.63866 15.6211 8.35925 15.1758 8.35925C14.7539 8.35925 14.4609 8.62702 14.4492 9.04615L14.0977 21.4918C14.0859 21.8994 14.3789 22.1787 14.8242 22.1787ZM6.19922 5.32058H8.06248V2.82911C8.06248 2.16549 8.53128 1.73471 9.23438 1.73471H13.4297C14.1328 1.73471 14.6016 2.16549 14.6016 2.82911V5.32058H16.4648V2.71268C16.4648 1.02453 15.3633 0 13.5586 0H9.10548C7.30078 0 6.19922 1.02453 6.19922 2.71268V5.32058ZM0.8789 6.25197H21.8203C22.3008 6.25197 22.6875 5.84449 22.6875 5.36715C22.6875 4.88982 22.3008 4.49397 21.8203 4.49397H0.8789C0.41015 4.49397 0 4.88982 0 5.36715C0 5.85613 0.41015 6.25197 0.8789 6.25197ZM5.97656 25.9277H16.7227C18.3984 25.9277 19.5234 24.8449 19.6055 23.18L20.4258 6.03076H18.5391L17.7539 22.9821C17.7305 23.6806 17.2266 24.1696 16.5352 24.1696H6.14062C5.47266 24.1696 4.96875 23.669 4.93359 22.9821L4.10156 6.03076H2.26172L3.09375 23.1917C3.17578 24.8565 4.27734 25.9277 5.97656 25.9277Z" fill="#B6FDB0" fill-opacity="0.85"/>
</svg>
